# xmcd
#
# Track frame offsets: 
#        150
#        20239
#        47822
#        59468
#        82797
#        112633
#        130074
#        148966
#        175571
#        177566
#        198097
#        214565
#
# Disc length: 3303 seconds
#
# Revision: 0
# Processed by: cddbd v1.5.2PL0 Copyright (c) Steve Scherf et al.
# Submitted via: ExactAudioCopy v0.95b4
#
DISCID=a00ce50c
DTITLE=RB Morris - Spies Lies and Burning Eyes
DYEAR=2010
DGENRE=Country/pop
TTITLE0=Amsterdam
TTITLE1=Big Wheel - Vowels
TTITLE2=I Left a Blue Shirt in Paris
TTITLE3=Spy In My Brain
TTITLE4=Father Fisheye
TTITLE5=Buddha in European Clothes
TTITLE6=Vertical Horizons (The Irish Sea)
TTITLE7=Regarding Emily
TTITLE8=Child
TTITLE9=That's How Every Empire Falls
TTITLE10=Then There is a City
TTITLE11=Plato's Perfect World
EXTD=
EXTT0=
EXTT1=
EXTT2=
EXTT3=
EXTT4=
EXTT5=
EXTT6=
EXTT7=
EXTT8=
EXTT9=
EXTT10=
EXTT11=
PLAYORDER=
